<svg data-name="Layer 1" viewBox="0 0 96 120" x="0px" y="0px"><title>Weather</title><path d="M48.27,28.21a2.14,2.14,0,0,0,2.14-2.14V19.68a2.14,2.14,0,0,0-4.28,0v6.39A2.14,2.14,0,0,0,48.27,28.21Z"/><path d="M30.94,34.14a2.14,2.14,0,0,0,3-3l-4.52-4.52a2.14,2.14,0,0,0-3,3Z"/><path d="M65.59,62.74a2.14,2.14,0,0,0-3,3l4.52,4.52a2.14,2.14,0,1,0,3-3Z"/><path d="M19.51,50.58H25.9a2.14,2.14,0,1,0,0-4.28H19.51a2.14,2.14,0,0,0,0,4.28Z"/><path d="M77,46.3H70.63a2.14,2.14,0,1,0,0,4.28H77a2.14,2.14,0,0,0,0-4.28Z"/><path d="M64.08,34.76a2.13,2.13,0,0,0,1.51-.63l4.52-4.52a2.14,2.14,0,1,0-3-3l-4.52,4.52a2.14,2.14,0,0,0,1.51,3.65Z"/><path d="M62.15,57.38a16.52,16.52,0,1,0-30.4-8.94c0,.5,0,1,.07,1.49a11.19,11.19,0,0,0-5.92,6.42,11.15,11.15,0,0,0,1,22,2.14,2.14,0,0,0,.54.07H47.84a2.14,2.14,0,0,0,.54-.07,11.12,11.12,0,0,0,8.83-16.07A16.55,16.55,0,0,0,62.15,57.38ZM47.7,74.15l-.22,0H27.76l-.22,0a6.87,6.87,0,0,1,.14-13.71,2.14,2.14,0,0,0,2-1.72,6.88,6.88,0,0,1,13.51.15,2.14,2.14,0,0,0,2.57,1.71,6.87,6.87,0,1,1,2,13.57Zm6.88-15.23a11.1,11.1,0,0,0-7.34-2.78h-.39a11.13,11.13,0,0,0-10.44-7.22H36c0-.17,0-.34,0-.5A12.24,12.24,0,1,1,54.58,58.92Z"/></svg>